# MagicaVoxel @ Ephtracy

# group
o 

# material
mtllib AcceptDivertedPower-1.mtl
usemtl palette

# normals
vn -1 0 0
vn 1 0 0
vn 0 0 1
vn 0 0 -1
vn 0 -1 0
vn 0 1 0

# texcoords
vt 0.958984 0.5
vt 0.974609 0.5
vt 0.982422 0.5
vt 0.986328 0.5

# verts
v -1.5 0 0.3
v -1.5 0 0
v -1.5 2.5 0.3
v -1.5 2.5 0
v -1.4 0.1 0.4
v -1.4 0.1 0.3
v -1.4 2.4 0.4
v -1.4 2.4 0.3
v -1.1 0.8 0.4
v -1.1 0.8 0.3
v -1.1 0.9 0.4
v -1.1 0.9 0.3
v -1.1 1.4 0.4
v -1.1 1.4 0.3
v -1.1 1.5 0.4
v -1.1 1.5 0.3
v -1 0.9 0.4
v -1 0.9 0.3
v -1 1.1 0.4
v -1 1.1 0.3
v -1 1.5 0.4
v -1 1.5 0.3
v -1 1.8 0.4
v -1 1.8 0.3
v -0.9 1.1 0.4
v -0.9 1.1 0.3
v -0.9 1.4 0.4
v -0.9 1.4 0.3
v -0.7 1.6 0.4
v -0.7 1.6 0.3
v -0.7 1.9 0.4
v -0.7 1.9 0.3
v -0.6 0.8 0.4
v -0.6 0.8 0.3
v -0.6 0.9 0.4
v -0.6 0.9 0.3
v -0.5 0.7 0.4
v -0.5 0.7 0.3
v -0.5 0.8 0.4
v -0.5 0.8 0.3
v -0.4 0.9 0.4
v -0.4 0.9 0.3
v -0.4 1.2 0.4
v -0.4 1.2 0.3
v -0.4 1.3 0.4
v -0.4 1.3 0.3
v -0.4 1.7 0.4
v -0.4 1.7 0.3
v -0.1 0.9 0.5
v -0.1 0.9 0.4
v -0.1 1 0.5
v -0.1 1 0.4
v -0.1 1.1 0.4
v -0.1 1.1 0.3
v -0.1 1.4 0.4
v -0.1 1.4 0.3
v -0.1 1.5 0.5
v -0.1 1.5 0.4
v -0.1 1.6 0.5
v -0.1 1.6 0.4
v -1.3 1.2 0.4
v -1.3 1.2 0.3
v -1.3 1.5 0.4
v -1.3 1.5 0.3
v -1.2 0.8 0.4
v -1.2 0.8 0.3
v -1.2 1.1 0.4
v -1.2 1.1 0.3
v -1.2 1.5 0.4
v -1.2 1.5 0.3
v -1.2 1.7 0.4
v -1.2 1.7 0.3
v -1.1 1.1 0.4
v -1.1 1.1 0.3
v -1.1 1.2 0.4
v -1.1 1.2 0.3
v -1.1 1.7 0.4
v -1.1 1.7 0.3
v -1.1 1.8 0.4
v -1.1 1.8 0.3
v -0.8 1.5 0.4
v -0.8 1.5 0.3
v -0.8 1.9 0.4
v -0.8 1.9 0.3
v -0.7 0.7 0.4
v -0.7 0.7 0.3
v -0.7 1 0.4
v -0.7 1 0.3
v -0.7 1.2 0.4
v -0.7 1.2 0.3
v -0.7 1.3 0.4
v -0.7 1.3 0.3
v -0.5 1 0.4
v -0.5 1 0.3
v -0.5 1.2 0.4
v -0.5 1.2 0.3
v -0.5 1.3 0.4
v -0.5 1.3 0.3
v -0.5 1.5 0.4
v -0.5 1.5 0.3
v -0.5 1.6 0.4
v -0.5 1.6 0.3
v -0.5 1.7 0.4
v -0.5 1.7 0.3
v -0.3 1.1 0.4
v -0.3 1.1 0.3
v -0.3 1.2 0.4
v -0.3 1.2 0.3
v -0.3 1.3 0.4
v -0.3 1.3 0.3
v -0.3 1.4 0.4
v -0.3 1.4 0.3
v 0.1 0.9 0.5
v 0.1 0.9 0.4
v 0.1 1 0.5
v 0.1 1 0.4
v 0.1 1.1 0.4
v 0.1 1.4 0.4
v 0.1 1.5 0.5
v 0.1 1.5 0.4
v 0.1 1.6 0.5
v 0.1 1.6 0.4
v 1.4 0.1 0.4
v 1.4 0.1 0.3
v 1.4 2.4 0.4
v 1.4 2.4 0.3
v 1.5 0 0.3
v 1.5 0 0
v 1.5 2.5 0.3
v 1.5 2.5 0
v -0.1 0.9 0.5
v -0.1 1 0.5
v -0.1 1.5 0.5
v -0.1 1.6 0.5
v 0.1 0.9 0.5
v 0.1 1 0.5
v 0.1 1.5 0.5
v 0.1 1.6 0.5
v -1.4 0.1 0.4
v -1.4 2.4 0.4
v -1.3 1.2 0.4
v -1.3 1.5 0.4
v -1.2 0.8 0.4
v -1.2 1.1 0.4
v -1.2 1.5 0.4
v -1.2 1.7 0.4
v -1.1 0.8 0.4
v -1.1 0.9 0.4
v -1.1 1.1 0.4
v -1.1 1.2 0.4
v -1.1 1.4 0.4
v -1.1 1.5 0.4
v -1.1 1.7 0.4
v -1.1 1.8 0.4
v -1 0.9 0.4
v -1 1.1 0.4
v -1 1.5 0.4
v -1 1.8 0.4
v -0.9 1.1 0.4
v -0.9 1.4 0.4
v -0.8 1.5 0.4
v -0.8 1.9 0.4
v -0.7 0.7 0.4
v -0.7 1 0.4
v -0.7 1.2 0.4
v -0.7 1.3 0.4
v -0.7 1.6 0.4
v -0.7 1.9 0.4
v -0.6 0.8 0.4
v -0.6 0.9 0.4
v -0.5 0.7 0.4
v -0.5 0.8 0.4
v -0.5 1 0.4
v -0.5 1.2 0.4
v -0.5 1.3 0.4
v -0.5 1.5 0.4
v -0.5 1.6 0.4
v -0.5 1.7 0.4
v -0.4 0.9 0.4
v -0.4 1.2 0.4
v -0.4 1.3 0.4
v -0.4 1.7 0.4
v -0.3 1.1 0.4
v -0.3 1.2 0.4
v -0.3 1.3 0.4
v -0.3 1.4 0.4
v -0.1 0.9 0.4
v -0.1 1 0.4
v -0.1 1.1 0.4
v -0.1 1.4 0.4
v -0.1 1.5 0.4
v -0.1 1.6 0.4
v 0.1 0.9 0.4
v 0.1 1 0.4
v 0.1 1.1 0.4
v 0.1 1.4 0.4
v 0.1 1.5 0.4
v 0.1 1.6 0.4
v 0.1 1.7 0.4
v 0.1 2.2 0.4
v 0.2 0.8 0.4
v 0.2 0.9 0.4
v 0.2 1.8 0.4
v 0.2 2 0.4
v 0.2 2.1 0.4
v 0.2 2.2 0.4
v 0.3 1.1 0.4
v 0.3 1.2 0.4
v 0.3 1.3 0.4
v 0.3 1.4 0.4
v 0.4 1.3 0.4
v 0.4 1.7 0.4
v 0.4 1.8 0.4
v 0.4 1.9 0.4
v 0.5 0.9 0.4
v 0.5 1.2 0.4
v 0.5 1.3 0.4
v 0.5 1.9 0.4
v 0.6 0.8 0.4
v 0.6 0.9 0.4
v 0.6 1 0.4
v 0.6 1.2 0.4
v 0.8 0.9 0.4
v 0.8 1 0.4
v 0.8 1.3 0.4
v 0.8 1.4 0.4
v 0.8 2 0.4
v 0.8 2.1 0.4
v 0.9 1.2 0.4
v 0.9 1.4 0.4
v 0.9 1.5 0.4
v 1 1 0.4
v 1 1.3 0.4
v 1.1 1.1 0.4
v 1.1 1.3 0.4
v 1.2 1 0.4
v 1.2 1.1 0.4
v 1.2 1.4 0.4
v 1.2 1.5 0.4
v 1.3 1.1 0.4
v 1.3 1.4 0.4
v 1.4 0.1 0.4
v 1.4 2.4 0.4
v -1.5 0 0.3
v -1.5 2.5 0.3
v -1.4 0.1 0.3
v -1.4 2.4 0.3
v -1.3 1.2 0.3
v -1.3 1.5 0.3
v -1.2 0.8 0.3
v -1.2 1.1 0.3
v -1.2 1.5 0.3
v -1.2 1.7 0.3
v -1.1 0.8 0.3
v -1.1 0.9 0.3
v -1.1 1.1 0.3
v -1.1 1.2 0.3
v -1.1 1.4 0.3
v -1.1 1.5 0.3
v -1.1 1.7 0.3
v -1.1 1.8 0.3
v -1 0.9 0.3
v -1 1.1 0.3
v -1 1.5 0.3
v -1 1.8 0.3
v -0.9 1.1 0.3
v -0.9 1.4 0.3
v -0.8 1.5 0.3
v -0.8 1.9 0.3
v -0.7 0.7 0.3
v -0.7 1 0.3
v -0.7 1.2 0.3
v -0.7 1.3 0.3
v -0.7 1.6 0.3
v -0.7 1.9 0.3
v -0.6 0.8 0.3
v -0.6 0.9 0.3
v -0.5 0.7 0.3
v -0.5 0.8 0.3
v -0.5 1 0.3
v -0.5 1.2 0.3
v -0.5 1.3 0.3
v -0.5 1.5 0.3
v -0.5 1.6 0.3
v -0.5 1.7 0.3
v -0.4 0.9 0.3
v -0.4 1.2 0.3
v -0.4 1.3 0.3
v -0.4 1.7 0.3
v -0.3 1.1 0.3
v -0.3 1.2 0.3
v -0.3 1.3 0.3
v -0.3 1.4 0.3
v -0.1 1.1 0.3
v -0.1 1.4 0.3
v 1.4 0.1 0.3
v 1.4 2.4 0.3
v 1.5 0 0.3
v 1.5 2.5 0.3
v -1.5 0 0
v -1.5 2.5 0
v 1.5 0 0
v 1.5 2.5 0
v -1.5 0 0.3
v 1.5 0 0.3
v -1.5 0 0
v 1.5 0 0
v -1.4 0.1 0.4
v 1.4 0.1 0.4
v -1.4 0.1 0.3
v 1.4 0.1 0.3
v -0.6 0.8 0.4
v -0.5 0.8 0.4
v -0.6 0.8 0.3
v -0.5 0.8 0.3
v -0.1 0.9 0.5
v 0.1 0.9 0.5
v -0.1 0.9 0.4
v 0.1 0.9 0.4
v -0.7 1 0.4
v -0.5 1 0.4
v -0.7 1 0.3
v -0.5 1 0.3
v -1.2 1.1 0.4
v -1.1 1.1 0.4
v -1.2 1.1 0.3
v -1.1 1.1 0.3
v -0.7 1.3 0.4
v -0.5 1.3 0.4
v -0.4 1.3 0.4
v -0.3 1.3 0.4
v -0.7 1.3 0.3
v -0.5 1.3 0.3
v -0.4 1.3 0.3
v -0.3 1.3 0.3
v -1.1 1.4 0.4
v -0.9 1.4 0.4
v -0.3 1.4 0.4
v -0.1 1.4 0.4
v -1.1 1.4 0.3
v -0.9 1.4 0.3
v -0.3 1.4 0.3
v -0.1 1.4 0.3
v -1.3 1.5 0.4
v -1.2 1.5 0.4
v -1.3 1.5 0.3
v -1.2 1.5 0.3
v -0.7 1.6 0.4
v -0.5 1.6 0.4
v -0.7 1.6 0.3
v -0.5 1.6 0.3
v -1.2 1.7 0.4
v -1.1 1.7 0.4
v -0.5 1.7 0.4
v -0.4 1.7 0.4
v -1.2 1.7 0.3
v -1.1 1.7 0.3
v -0.5 1.7 0.3
v -0.4 1.7 0.3
v -1.1 1.8 0.4
v -1 1.8 0.4
v -1.1 1.8 0.3
v -1 1.8 0.3
v -0.8 1.9 0.4
v -0.7 1.9 0.4
v -0.8 1.9 0.3
v -0.7 1.9 0.3
v -0.7 0.7 0.4
v -0.5 0.7 0.4
v -0.7 0.7 0.3
v -0.5 0.7 0.3
v -1.2 0.8 0.4
v -1.1 0.8 0.4
v -1.2 0.8 0.3
v -1.1 0.8 0.3
v -1.1 0.9 0.4
v -1 0.9 0.4
v -0.6 0.9 0.4
v -0.4 0.9 0.4
v -1.1 0.9 0.3
v -1 0.9 0.3
v -0.6 0.9 0.3
v -0.4 0.9 0.3
v -1 1.1 0.4
v -0.9 1.1 0.4
v -0.3 1.1 0.4
v -0.1 1.1 0.4
v -1 1.1 0.3
v -0.9 1.1 0.3
v -0.3 1.1 0.3
v -0.1 1.1 0.3
v -1.3 1.2 0.4
v -1.1 1.2 0.4
v -0.7 1.2 0.4
v -0.5 1.2 0.4
v -0.4 1.2 0.4
v -0.3 1.2 0.4
v -1.3 1.2 0.3
v -1.1 1.2 0.3
v -0.7 1.2 0.3
v -0.5 1.2 0.3
v -0.4 1.2 0.3
v -0.3 1.2 0.3
v -1.1 1.5 0.4
v -1 1.5 0.4
v -0.8 1.5 0.4
v -0.5 1.5 0.4
v -1.1 1.5 0.3
v -1 1.5 0.3
v -0.8 1.5 0.3
v -0.5 1.5 0.3
v -0.1 1.6 0.5
v 0.1 1.6 0.5
v -0.1 1.6 0.4
v 0.1 1.6 0.4
v -1.4 2.4 0.4
v 1.4 2.4 0.4
v -1.4 2.4 0.3
v 1.4 2.4 0.3
v -1.5 2.5 0.3
v 1.5 2.5 0.3
v -1.5 2.5 0
v 1.5 2.5 0

# faces
f 3/3/1 2/3/1 1/3/1
f 4/3/1 2/3/1 3/3/1
f 7/3/1 6/3/1 5/3/1
f 8/3/1 6/3/1 7/3/1
f 11/3/1 10/3/1 9/3/1
f 12/3/1 10/3/1 11/3/1
f 15/3/1 14/3/1 13/3/1
f 16/3/1 14/3/1 15/3/1
f 19/3/1 18/3/1 17/3/1
f 20/3/1 18/3/1 19/3/1
f 23/3/1 22/3/1 21/3/1
f 24/3/1 22/3/1 23/3/1
f 27/3/1 26/3/1 25/3/1
f 28/3/1 26/3/1 27/3/1
f 31/3/1 30/3/1 29/3/1
f 32/3/1 30/3/1 31/3/1
f 35/3/1 34/3/1 33/3/1
f 36/3/1 34/3/1 35/3/1
f 39/3/1 38/3/1 37/3/1
f 40/3/1 38/3/1 39/3/1
f 43/3/1 42/3/1 41/3/1
f 44/3/1 42/3/1 43/3/1
f 47/3/1 46/3/1 45/3/1
f 48/3/1 46/3/1 47/3/1
f 51/4/1 50/4/1 49/4/1
f 52/4/1 50/4/1 51/4/1
f 53/2/1 52/2/1 51/2/1
f 55/2/1 53/2/1 51/2/1
f 55/3/1 54/3/1 53/3/1
f 56/3/1 54/3/1 55/3/1
f 57/2/1 55/2/1 51/2/1
f 58/2/1 55/2/1 57/2/1
f 59/4/1 58/4/1 57/4/1
f 60/4/1 58/4/1 59/4/1
f 61/3/2 62/3/2 63/3/2
f 63/3/2 62/3/2 64/3/2
f 65/3/2 66/3/2 67/3/2
f 67/3/2 66/3/2 68/3/2
f 69/3/2 70/3/2 71/3/2
f 71/3/2 70/3/2 72/3/2
f 73/3/2 74/3/2 75/3/2
f 75/3/2 74/3/2 76/3/2
f 77/3/2 78/3/2 79/3/2
f 79/3/2 78/3/2 80/3/2
f 81/3/2 82/3/2 83/3/2
f 83/3/2 82/3/2 84/3/2
f 85/3/2 86/3/2 87/3/2
f 87/3/2 86/3/2 88/3/2
f 89/3/2 90/3/2 91/3/2
f 91/3/2 90/3/2 92/3/2
f 93/3/2 94/3/2 95/3/2
f 95/3/2 94/3/2 96/3/2
f 97/3/2 98/3/2 99/3/2
f 99/3/2 98/3/2 100/3/2
f 101/3/2 102/3/2 103/3/2
f 103/3/2 102/3/2 104/3/2
f 105/3/2 106/3/2 107/3/2
f 107/3/2 106/3/2 108/3/2
f 109/3/2 110/3/2 111/3/2
f 111/3/2 110/3/2 112/3/2
f 113/4/2 114/4/2 115/4/2
f 115/4/2 114/4/2 116/4/2
f 115/2/2 116/2/2 117/2/2
f 115/2/2 117/2/2 118/2/2
f 115/2/2 118/2/2 119/2/2
f 119/2/2 118/2/2 120/2/2
f 119/4/2 120/4/2 121/4/2
f 121/4/2 120/4/2 122/4/2
f 123/3/2 124/3/2 125/3/2
f 125/3/2 124/3/2 126/3/2
f 127/3/2 128/3/2 129/3/2
f 129/3/2 128/3/2 130/3/2
f 135/4/3 132/4/3 131/4/3
f 136/2/3 133/2/3 132/2/3
f 136/4/3 132/4/3 135/4/3
f 137/4/3 134/4/3 133/4/3
f 137/2/3 133/2/3 136/2/3
f 138/4/3 134/4/3 137/4/3
f 141/3/3 140/3/3 139/3/3
f 142/3/3 140/3/3 141/3/3
f 143/3/3 141/3/3 139/3/3
f 144/3/3 141/3/3 143/3/3
f 145/3/3 140/3/3 142/3/3
f 146/3/3 140/3/3 145/3/3
f 147/3/3 143/3/3 139/3/3
f 149/3/3 141/3/3 144/3/3
f 150/3/3 141/3/3 149/3/3
f 153/3/3 140/3/3 146/3/3
f 154/3/3 140/3/3 153/3/3
f 155/3/3 148/3/3 147/3/3
f 157/3/3 152/3/3 151/3/3
f 158/3/3 140/3/3 154/3/3
f 159/3/3 156/3/3 155/3/3
f 160/3/3 157/3/3 151/3/3
f 160/3/3 158/3/3 157/3/3
f 161/3/3 158/3/3 160/3/3
f 161/3/3 160/3/3 159/3/3
f 162/3/3 140/3/3 158/3/3
f 162/3/3 158/3/3 161/3/3
f 163/3/3 159/3/3 155/3/3
f 163/3/3 161/3/3 159/3/3
f 163/3/3 147/3/3 139/3/3
f 163/3/3 155/3/3 147/3/3
f 164/3/3 161/3/3 163/3/3
f 165/3/3 161/3/3 164/3/3
f 166/3/3 161/3/3 165/3/3
f 168/3/3 140/3/3 162/3/3
f 171/3/3 163/3/3 139/3/3
f 172/3/3 170/3/3 169/3/3
f 173/3/3 165/3/3 164/3/3
f 174/3/3 165/3/3 173/3/3
f 175/3/3 161/3/3 166/3/3
f 176/3/3 161/3/3 175/3/3
f 177/3/3 168/3/3 167/3/3
f 178/3/3 168/3/3 177/3/3
f 179/3/3 172/3/3 171/3/3
f 179/3/3 170/3/3 172/3/3
f 182/3/3 168/3/3 178/3/3
f 183/3/3 180/3/3 179/3/3
f 184/3/3 180/3/3 183/3/3
f 185/3/3 182/3/3 181/3/3
f 186/3/3 182/3/3 185/3/3
f 187/3/3 179/3/3 171/3/3
f 187/3/3 183/3/3 179/3/3
f 188/3/3 183/3/3 187/3/3
f 189/3/3 183/3/3 188/3/3
f 190/3/3 182/3/3 186/3/3
f 191/3/3 182/3/3 190/3/3
f 192/3/3 182/3/3 191/3/3
f 193/3/3 187/3/3 171/3/3
f 198/3/3 182/3/3 192/3/3
f 199/3/3 168/3/3 182/3/3
f 199/3/3 182/3/3 198/3/3
f 200/3/3 140/3/3 168/3/3
f 200/3/3 168/3/3 199/3/3
f 201/3/3 193/3/3 171/3/3
f 201/3/3 194/3/3 193/3/3
f 201/3/3 195/3/3 194/3/3
f 202/3/3 195/3/3 201/3/3
f 203/1/3 200/1/3 199/1/3
f 204/1/3 200/1/3 203/1/3
f 205/1/3 200/1/3 204/1/3
f 206/3/3 140/3/3 200/3/3
f 206/1/3 200/1/3 205/1/3
f 207/3/3 195/3/3 202/3/3
f 207/1/3 196/1/3 195/1/3
f 208/1/3 196/1/3 207/1/3
f 209/1/3 196/1/3 208/1/3
f 210/3/3 197/3/3 196/3/3
f 210/1/3 196/1/3 209/1/3
f 210/3/3 199/3/3 198/3/3
f 210/3/3 198/3/3 197/3/3
f 211/1/3 209/1/3 208/1/3
f 211/3/3 210/3/3 209/3/3
f 212/3/3 199/3/3 210/3/3
f 212/3/3 210/3/3 211/3/3
f 212/1/3 203/1/3 199/1/3
f 213/3/3 204/3/3 203/3/3
f 213/1/3 203/1/3 212/1/3
f 214/3/3 204/3/3 213/3/3
f 215/3/3 208/3/3 207/3/3
f 215/3/3 207/3/3 202/3/3
f 215/1/3 202/1/3 201/1/3
f 216/1/3 211/1/3 208/1/3
f 216/3/3 208/3/3 215/3/3
f 216/1/3 214/1/3 213/1/3
f 216/1/3 212/1/3 211/1/3
f 216/1/3 213/1/3 212/1/3
f 217/1/3 214/1/3 216/1/3
f 218/3/3 204/3/3 214/3/3
f 218/1/3 214/1/3 217/1/3
f 219/1/3 215/1/3 201/1/3
f 219/1/3 217/1/3 216/1/3
f 219/3/3 201/3/3 171/3/3
f 219/1/3 216/1/3 215/1/3
f 220/1/3 217/1/3 219/1/3
f 221/1/3 217/1/3 220/1/3
f 222/1/3 217/1/3 221/1/3
f 223/3/3 220/3/3 219/3/3
f 223/1/3 221/1/3 220/1/3
f 224/3/3 222/3/3 221/3/3
f 224/1/3 221/1/3 223/1/3
f 225/3/3 218/3/3 217/3/3
f 225/1/3 217/1/3 222/1/3
f 226/3/3 218/3/3 225/3/3
f 227/3/3 204/3/3 218/3/3
f 227/3/3 218/3/3 226/3/3
f 227/1/3 205/1/3 204/1/3
f 228/3/3 206/3/3 205/3/3
f 228/1/3 205/1/3 227/1/3
f 229/1/3 226/1/3 225/1/3
f 229/3/3 222/3/3 224/3/3
f 229/1/3 225/1/3 222/1/3
f 229/3/3 224/3/3 223/3/3
f 230/3/3 228/3/3 227/3/3
f 230/1/3 226/1/3 229/1/3
f 230/3/3 227/3/3 226/3/3
f 231/3/3 228/3/3 230/3/3
f 232/3/3 229/3/3 223/3/3
f 232/3/3 230/3/3 229/3/3
f 233/3/3 230/3/3 232/3/3
f 234/1/3 233/1/3 232/1/3
f 235/3/3 230/3/3 233/3/3
f 235/1/3 233/1/3 234/1/3
f 236/3/3 232/3/3 223/3/3
f 236/1/3 234/1/3 232/1/3
f 237/3/3 235/3/3 234/3/3
f 237/1/3 234/1/3 236/1/3
f 238/1/3 231/1/3 230/1/3
f 238/3/3 235/3/3 237/3/3
f 238/3/3 230/3/3 235/3/3
f 239/3/3 228/3/3 231/3/3
f 239/1/3 231/1/3 238/1/3
f 240/1/3 238/1/3 237/1/3
f 240/3/3 237/3/3 236/3/3
f 241/3/3 239/3/3 238/3/3
f 241/1/3 238/1/3 240/1/3
f 242/3/3 171/3/3 139/3/3
f 242/3/3 219/3/3 171/3/3
f 242/3/3 241/3/3 240/3/3
f 242/3/3 236/3/3 223/3/3
f 242/3/3 240/3/3 236/3/3
f 242/3/3 223/3/3 219/3/3
f 243/3/3 206/3/3 228/3/3
f 243/3/3 241/3/3 242/3/3
f 243/3/3 239/3/3 241/3/3
f 243/3/3 140/3/3 206/3/3
f 243/3/3 228/3/3 239/3/3
f 246/3/3 245/3/3 244/3/3
f 247/3/3 245/3/3 246/3/3
f 252/3/3 249/3/3 248/3/3
f 254/3/3 251/3/3 250/3/3
f 255/3/3 251/3/3 254/3/3
f 256/3/3 251/3/3 255/3/3
f 257/3/3 253/3/3 252/3/3
f 257/3/3 252/3/3 248/3/3
f 258/3/3 253/3/3 257/3/3
f 259/3/3 253/3/3 258/3/3
f 260/3/3 253/3/3 259/3/3
f 262/3/3 256/3/3 255/3/3
f 262/3/3 257/3/3 256/3/3
f 262/3/3 258/3/3 257/3/3
f 263/3/3 258/3/3 262/3/3
f 264/3/3 261/3/3 260/3/3
f 264/3/3 260/3/3 259/3/3
f 265/3/3 261/3/3 264/3/3
f 266/3/3 258/3/3 263/3/3
f 267/3/3 258/3/3 266/3/3
f 274/3/3 269/3/3 268/3/3
f 275/3/3 269/3/3 274/3/3
f 276/3/3 271/3/3 270/3/3
f 277/3/3 271/3/3 276/3/3
f 278/3/3 276/3/3 270/3/3
f 279/3/3 276/3/3 278/3/3
f 280/3/3 271/3/3 277/3/3
f 281/3/3 273/3/3 272/3/3
f 282/3/3 273/3/3 281/3/3
f 283/3/3 274/3/3 268/3/3
f 284/3/3 274/3/3 283/3/3
f 286/3/3 280/3/3 277/3/3
f 286/3/3 285/3/3 284/3/3
f 286/3/3 284/3/3 283/3/3
f 286/3/3 283/3/3 282/3/3
f 286/3/3 282/3/3 281/3/3
f 286/3/3 281/3/3 280/3/3
f 287/3/3 285/3/3 286/3/3
f 288/3/3 285/3/3 287/3/3
f 289/3/3 285/3/3 288/3/3
f 291/3/3 288/3/3 287/3/3
f 292/3/3 288/3/3 291/3/3
f 294/3/3 291/3/3 290/3/3
f 294/3/3 293/3/3 292/3/3
f 294/3/3 292/3/3 291/3/3
f 295/3/3 293/3/3 294/3/3
f 296/3/3 246/3/3 244/3/3
f 297/3/3 245/3/3 247/3/3
f 298/3/3 296/3/3 244/3/3
f 298/3/3 297/3/3 296/3/3
f 299/3/3 245/3/3 297/3/3
f 299/3/3 297/3/3 298/3/3
f 300/3/4 301/3/4 302/3/4
f 302/3/4 301/3/4 303/3/4
f 306/3/5 305/3/5 304/3/5
f 307/3/5 305/3/5 306/3/5
f 310/3/5 309/3/5 308/3/5
f 311/3/5 309/3/5 310/3/5
f 314/3/5 313/3/5 312/3/5
f 315/3/5 313/3/5 314/3/5
f 318/4/5 317/4/5 316/4/5
f 319/4/5 317/4/5 318/4/5
f 322/3/5 321/3/5 320/3/5
f 323/3/5 321/3/5 322/3/5
f 326/3/5 325/3/5 324/3/5
f 327/3/5 325/3/5 326/3/5
f 332/3/5 329/3/5 328/3/5
f 333/3/5 329/3/5 332/3/5
f 334/3/5 331/3/5 330/3/5
f 335/3/5 331/3/5 334/3/5
f 340/3/5 337/3/5 336/3/5
f 341/3/5 337/3/5 340/3/5
f 342/3/5 339/3/5 338/3/5
f 343/3/5 339/3/5 342/3/5
f 346/3/5 345/3/5 344/3/5
f 347/3/5 345/3/5 346/3/5
f 350/3/5 349/3/5 348/3/5
f 351/3/5 349/3/5 350/3/5
f 356/3/5 353/3/5 352/3/5
f 357/3/5 353/3/5 356/3/5
f 358/3/5 355/3/5 354/3/5
f 359/3/5 355/3/5 358/3/5
f 362/3/5 361/3/5 360/3/5
f 363/3/5 361/3/5 362/3/5
f 366/3/5 365/3/5 364/3/5
f 367/3/5 365/3/5 366/3/5
f 368/3/6 369/3/6 370/3/6
f 370/3/6 369/3/6 371/3/6
f 372/3/6 373/3/6 374/3/6
f 374/3/6 373/3/6 375/3/6
f 376/3/6 377/3/6 380/3/6
f 380/3/6 377/3/6 381/3/6
f 378/3/6 379/3/6 382/3/6
f 382/3/6 379/3/6 383/3/6
f 384/3/6 385/3/6 388/3/6
f 388/3/6 385/3/6 389/3/6
f 386/3/6 387/3/6 390/3/6
f 390/3/6 387/3/6 391/3/6
f 392/3/6 393/3/6 398/3/6
f 398/3/6 393/3/6 399/3/6
f 394/3/6 395/3/6 400/3/6
f 400/3/6 395/3/6 401/3/6
f 396/3/6 397/3/6 402/3/6
f 402/3/6 397/3/6 403/3/6
f 404/3/6 405/3/6 408/3/6
f 408/3/6 405/3/6 409/3/6
f 406/3/6 407/3/6 410/3/6
f 410/3/6 407/3/6 411/3/6
f 412/4/6 413/4/6 414/4/6
f 414/4/6 413/4/6 415/4/6
f 416/3/6 417/3/6 418/3/6
f 418/3/6 417/3/6 419/3/6
f 420/3/6 421/3/6 422/3/6
f 422/3/6 421/3/6 423/3/6
