# MagicaVoxel @ Ephtracy

# group
o 

# material
mtllib NavigationChair.mtl
usemtl palette

# normals
vn -1 0 0
vn 1 0 0
vn 0 0 1
vn 0 0 -1
vn 0 -1 0
vn 0 1 0

# texcoords
vt 0.986328 0.5
vt 0.990234 0.5

# verts
v -2 1.2 1.8
v -2 1.2 -1.8
v -2 5.7 1.8
v -2 5.7 -1.8
v -1.8 1 1.8
v -1.8 1 -1.8
v -1.8 1.2 2
v -1.8 1.2 1.8
v -1.8 1.2 -1.8
v -1.8 1.2 -2
v -1.8 5.7 2
v -1.8 5.7 1.8
v -1.8 5.7 -1.8
v -1.8 5.7 -2
v -1.8 5.9 1.8
v -1.8 5.9 -1.8
v -0.5 0 0.4
v -0.5 0 -0.4
v -0.5 1 0.4
v -0.5 1 -0.4
v -0.3 0 0.6
v -0.3 0 0.4
v -0.3 0 -0.4
v -0.3 0 -0.6
v -0.3 1 0.6
v -0.3 1 0.4
v -0.3 1 -0.4
v -0.3 1 -0.6
v -1.4 1.6 2
v -1.4 1.6 1.8
v -1.4 1.6 -1.8
v -1.4 1.6 -2
v -1.4 5.7 2
v -1.4 5.7 1.8
v -1.4 5.7 -1.8
v -1.4 5.7 -2
v -1.4 5.9 1.8
v -1.4 5.9 -1.8
v -1.2 1.8 1.8
v -1.2 1.8 -1.8
v -1.2 5.7 1.8
v -1.2 5.7 -1.8
v 0.4 0 0.6
v 0.4 0 0.4
v 0.4 0 -0.4
v 0.4 0 -0.6
v 0.4 1 0.6
v 0.4 1 0.4
v 0.4 1 -0.4
v 0.4 1 -0.6
v 0.6 0 0.4
v 0.6 0 -0.4
v 0.6 1 0.4
v 0.6 1 -0.4
v 1.8 1 1.8
v 1.8 1 -1.8
v 1.8 1.2 2
v 1.8 1.2 1.8
v 1.8 1.2 -1.8
v 1.8 1.2 -2
v 1.8 1.6 2
v 1.8 1.6 1.8
v 1.8 1.6 -1.8
v 1.8 1.6 -2
v 1.8 1.8 1.8
v 1.8 1.8 -1.8
v 2 1.2 1.8
v 2 1.2 -1.8
v 2 1.6 1.8
v 2 1.6 -1.8
v -1.8 1.2 2
v -1.8 5.7 2
v -1.4 1.6 2
v -1.4 5.7 2
v 1.8 1.2 2
v 1.8 1.6 2
v -2 1.2 1.8
v -2 5.7 1.8
v -1.8 1 1.8
v -1.8 1.2 1.8
v -1.8 5.7 1.8
v -1.8 5.9 1.8
v -1.4 1.6 1.8
v -1.4 5.7 1.8
v -1.4 5.9 1.8
v -1.2 1.8 1.8
v -1.2 5.7 1.8
v 1.8 1 1.8
v 1.8 1.2 1.8
v 1.8 1.6 1.8
v 1.8 1.8 1.8
v 2 1.2 1.8
v 2 1.6 1.8
v -0.3 0 0.6
v -0.3 1 0.6
v 0.4 0 0.6
v 0.4 1 0.6
v -0.5 0 0.4
v -0.5 1 0.4
v -0.3 0 0.4
v -0.3 1 0.4
v 0.4 0 0.4
v 0.4 1 0.4
v 0.6 0 0.4
v 0.6 1 0.4
v -0.5 0 -0.4
v -0.5 1 -0.4
v -0.3 0 -0.4
v -0.3 1 -0.4
v 0.4 0 -0.4
v 0.4 1 -0.4
v 0.6 0 -0.4
v 0.6 1 -0.4
v -0.3 0 -0.6
v -0.3 1 -0.6
v 0.4 0 -0.6
v 0.4 1 -0.6
v -2 1.2 -1.8
v -2 5.7 -1.8
v -1.8 1 -1.8
v -1.8 1.2 -1.8
v -1.8 5.7 -1.8
v -1.8 5.9 -1.8
v -1.4 1.6 -1.8
v -1.4 5.7 -1.8
v -1.4 5.9 -1.8
v -1.2 1.8 -1.8
v -1.2 5.7 -1.8
v 1.8 1 -1.8
v 1.8 1.2 -1.8
v 1.8 1.6 -1.8
v 1.8 1.8 -1.8
v 2 1.2 -1.8
v 2 1.6 -1.8
v -1.8 1.2 -2
v -1.8 5.7 -2
v -1.4 1.6 -2
v -1.4 5.7 -2
v 1.8 1.2 -2
v 1.8 1.6 -2
v -0.3 0 0.6
v 0.4 0 0.6
v -0.5 0 0.4
v -0.3 0 0.4
v 0.4 0 0.4
v 0.6 0 0.4
v -0.5 0 -0.4
v -0.3 0 -0.4
v 0.4 0 -0.4
v 0.6 0 -0.4
v -0.3 0 -0.6
v 0.4 0 -0.6
v -1.8 1 1.8
v 1.8 1 1.8
v -0.3 1 0.6
v 0.4 1 0.6
v -0.5 1 0.4
v -0.3 1 0.4
v 0.4 1 0.4
v 0.6 1 0.4
v -0.5 1 -0.4
v -0.3 1 -0.4
v 0.4 1 -0.4
v 0.6 1 -0.4
v -0.3 1 -0.6
v 0.4 1 -0.6
v -1.8 1 -1.8
v 1.8 1 -1.8
v -1.8 1.2 2
v 1.8 1.2 2
v -2 1.2 1.8
v -1.8 1.2 1.8
v 1.8 1.2 1.8
v 2 1.2 1.8
v -2 1.2 -1.8
v -1.8 1.2 -1.8
v 1.8 1.2 -1.8
v 2 1.2 -1.8
v -1.8 1.2 -2
v 1.8 1.2 -2
v -1.4 1.6 2
v 1.8 1.6 2
v -1.4 1.6 1.8
v 1.8 1.6 1.8
v 2 1.6 1.8
v -1.4 1.6 -1.8
v 1.8 1.6 -1.8
v 2 1.6 -1.8
v -1.4 1.6 -2
v 1.8 1.6 -2
v -1.2 1.8 1.8
v 1.8 1.8 1.8
v -1.2 1.8 -1.8
v 1.8 1.8 -1.8
v -1.8 5.7 2
v -1.4 5.7 2
v -2 5.7 1.8
v -1.8 5.7 1.8
v -1.4 5.7 1.8
v -1.2 5.7 1.8
v -2 5.7 -1.8
v -1.8 5.7 -1.8
v -1.4 5.7 -1.8
v -1.2 5.7 -1.8
v -1.8 5.7 -2
v -1.4 5.7 -2
v -1.8 5.9 1.8
v -1.4 5.9 1.8
v -1.8 5.9 -1.8
v -1.4 5.9 -1.8

# faces
f 3/1/1 2/1/1 1/1/1
f 4/1/1 2/1/1 3/1/1
f 8/1/1 6/1/1 5/1/1
f 9/1/1 6/1/1 8/1/1
f 11/1/1 8/1/1 7/1/1
f 12/1/1 8/1/1 11/1/1
f 13/1/1 10/1/1 9/1/1
f 14/1/1 10/1/1 13/1/1
f 15/1/1 13/1/1 12/1/1
f 16/1/1 13/1/1 15/1/1
f 19/2/1 18/2/1 17/2/1
f 20/2/1 18/2/1 19/2/1
f 25/2/1 22/2/1 21/2/1
f 26/2/1 22/2/1 25/2/1
f 27/2/1 24/2/1 23/2/1
f 28/2/1 24/2/1 27/2/1
f 29/1/2 30/1/2 33/1/2
f 33/1/2 30/1/2 34/1/2
f 31/1/2 32/1/2 35/1/2
f 35/1/2 32/1/2 36/1/2
f 34/1/2 35/1/2 37/1/2
f 37/1/2 35/1/2 38/1/2
f 39/1/2 40/1/2 41/1/2
f 41/1/2 40/1/2 42/1/2
f 43/2/2 44/2/2 47/2/2
f 47/2/2 44/2/2 48/2/2
f 45/2/2 46/2/2 49/2/2
f 49/2/2 46/2/2 50/2/2
f 51/2/2 52/2/2 53/2/2
f 53/2/2 52/2/2 54/2/2
f 55/1/2 56/1/2 58/1/2
f 58/1/2 56/1/2 59/1/2
f 57/1/2 58/1/2 61/1/2
f 61/1/2 58/1/2 62/1/2
f 59/1/2 60/1/2 63/1/2
f 63/1/2 60/1/2 64/1/2
f 62/1/2 63/1/2 65/1/2
f 65/1/2 63/1/2 66/1/2
f 67/1/2 68/1/2 69/1/2
f 69/1/2 68/1/2 70/1/2
f 73/1/3 72/1/3 71/1/3
f 74/1/3 72/1/3 73/1/3
f 75/1/3 73/1/3 71/1/3
f 76/1/3 73/1/3 75/1/3
f 80/1/3 78/1/3 77/1/3
f 81/1/3 78/1/3 80/1/3
f 84/1/3 82/1/3 81/1/3
f 85/1/3 82/1/3 84/1/3
f 86/1/3 84/1/3 83/1/3
f 87/1/3 84/1/3 86/1/3
f 88/1/3 80/1/3 79/1/3
f 89/1/3 80/1/3 88/1/3
f 90/1/3 86/1/3 83/1/3
f 91/1/3 86/1/3 90/1/3
f 92/1/3 90/1/3 89/1/3
f 93/1/3 90/1/3 92/1/3
f 96/2/3 95/2/3 94/2/3
f 97/2/3 95/2/3 96/2/3
f 100/2/3 99/2/3 98/2/3
f 101/2/3 99/2/3 100/2/3
f 104/2/3 103/2/3 102/2/3
f 105/2/3 103/2/3 104/2/3
f 106/2/4 107/2/4 108/2/4
f 108/2/4 107/2/4 109/2/4
f 110/2/4 111/2/4 112/2/4
f 112/2/4 111/2/4 113/2/4
f 114/2/4 115/2/4 116/2/4
f 116/2/4 115/2/4 117/2/4
f 118/1/4 119/1/4 121/1/4
f 121/1/4 119/1/4 122/1/4
f 122/1/4 123/1/4 125/1/4
f 125/1/4 123/1/4 126/1/4
f 124/1/4 125/1/4 127/1/4
f 127/1/4 125/1/4 128/1/4
f 120/1/4 121/1/4 129/1/4
f 129/1/4 121/1/4 130/1/4
f 124/1/4 127/1/4 131/1/4
f 131/1/4 127/1/4 132/1/4
f 130/1/4 131/1/4 133/1/4
f 133/1/4 131/1/4 134/1/4
f 135/1/4 136/1/4 137/1/4
f 137/1/4 136/1/4 138/1/4
f 135/1/4 137/1/4 139/1/4
f 139/1/4 137/1/4 140/1/4
f 144/2/5 142/2/5 141/2/5
f 145/2/5 142/2/5 144/2/5
f 147/2/5 144/2/5 143/2/5
f 147/2/5 146/2/5 145/2/5
f 147/2/5 145/2/5 144/2/5
f 148/2/5 146/2/5 147/2/5
f 149/2/5 146/2/5 148/2/5
f 150/2/5 146/2/5 149/2/5
f 151/2/5 149/2/5 148/2/5
f 152/2/5 149/2/5 151/2/5
f 155/1/5 154/1/5 153/1/5
f 156/1/5 154/1/5 155/1/5
f 157/1/5 155/1/5 153/1/5
f 158/1/5 155/1/5 157/1/5
f 159/1/5 154/1/5 156/1/5
f 160/1/5 154/1/5 159/1/5
f 161/1/5 157/1/5 153/1/5
f 164/1/5 154/1/5 160/1/5
f 165/1/5 162/1/5 161/1/5
f 166/1/5 164/1/5 163/1/5
f 167/1/5 165/1/5 161/1/5
f 167/1/5 166/1/5 165/1/5
f 167/1/5 161/1/5 153/1/5
f 168/1/5 164/1/5 166/1/5
f 168/1/5 166/1/5 167/1/5
f 168/1/5 154/1/5 164/1/5
f 172/1/5 170/1/5 169/1/5
f 173/1/5 170/1/5 172/1/5
f 175/1/5 172/1/5 171/1/5
f 176/1/5 172/1/5 175/1/5
f 177/1/5 174/1/5 173/1/5
f 178/1/5 174/1/5 177/1/5
f 179/1/5 177/1/5 176/1/5
f 180/1/5 177/1/5 179/1/5
f 181/1/6 182/1/6 183/1/6
f 183/1/6 182/1/6 184/1/6
f 184/1/6 185/1/6 187/1/6
f 187/1/6 185/1/6 188/1/6
f 186/1/6 187/1/6 189/1/6
f 189/1/6 187/1/6 190/1/6
f 191/1/6 192/1/6 193/1/6
f 193/1/6 192/1/6 194/1/6
f 195/1/6 196/1/6 198/1/6
f 198/1/6 196/1/6 199/1/6
f 197/1/6 198/1/6 201/1/6
f 201/1/6 198/1/6 202/1/6
f 199/1/6 200/1/6 203/1/6
f 203/1/6 200/1/6 204/1/6
f 202/1/6 203/1/6 205/1/6
f 205/1/6 203/1/6 206/1/6
f 207/1/6 208/1/6 209/1/6
f 209/1/6 208/1/6 210/1/6
