# MagicaVoxel @ Ephtracy

# group
o 

# material
mtllib WeaponsTubes-1.mtl
usemtl palette

# normals
vn -1 0 0
vn 1 0 0
vn 0 0 1
vn 0 0 -1
vn 0 -1 0
vn 0 1 0

# texcoords
vt 0.970703 0.5
vt 0.974609 0.5

# verts
v -6 0 12.8
v -6 0 -7.8
v -6 0 -12.8
v -6 3.7 12.8
v -6 3.7 -7.8
v -6 9.8 -7.8
v -6 9.8 -12.8
v -5.8 9.8 -8
v -5.8 9.8 -12.6
v -5.8 10 -8
v -5.8 10 -12.6
v -5.7 3.7 12.8
v -5.7 3.7 -7.8
v -5.7 4 12.8
v -5.7 4 -7.8
v -5.3 7.6 -7.8
v -5.3 7.6 -8
v -5.3 9.9 -7.8
v -5.3 9.9 -8
v -4.5 7.6 -7.8
v -4.5 7.6 -8
v -4.5 10 -7.8
v -4.5 10 -8
v -3.7 7.6 -7.8
v -3.7 7.6 -8
v -3.7 10 -7.8
v -3.7 10 -8
v -2.9 7.6 -7.8
v -2.9 7.6 -8
v -2.9 10 -7.8
v -2.9 10 -8
v -2.1 7.6 -7.8
v -2.1 7.6 -8
v -2.1 9.9 -7.8
v -2.1 9.9 -8
v -1.3 7.6 -7.8
v -1.3 7.6 -8
v -1.3 9.8 -7.8
v -1.3 9.8 -8
v 0 0 -9.5
v 0 0 -11.1
v 0 1.8 -9.5
v 0 1.8 -11.1
v 0.2 0 -9.3
v 0.2 0 -9.5
v 0.2 0 -11.1
v 0.2 0 -11.3
v 0.2 2 -9.3
v 0.2 2 -9.5
v 0.2 2 -11.1
v 0.2 2 -11.3
v -5.7 7.6 -7.8
v -5.7 7.6 -8
v -5.7 9.8 -7.8
v -5.7 9.8 -8
v -4.9 7.6 -7.8
v -4.9 7.6 -8
v -4.9 9.9 -7.8
v -4.9 9.9 -8
v -4.1 7.6 -7.8
v -4.1 7.6 -8
v -4.1 10 -7.8
v -4.1 10 -8
v -3.3 7.6 -7.8
v -3.3 7.6 -8
v -3.3 10 -7.8
v -3.3 10 -8
v -2.5 7.6 -7.8
v -2.5 7.6 -8
v -2.5 10 -7.8
v -2.5 10 -8
v -2.3 3.7 12.8
v -2.3 3.7 -7.8
v -2.3 4 12.8
v -2.3 4 -7.8
v -2 0 12.8
v -2 0 2.3
v -2 0 -0.7
v -2 0 -7.8
v -2 2.7 2.3
v -2 2.7 2
v -2 2.7 -0.4
v -2 2.7 -0.7
v -2 3 2
v -2 3 -0.4
v -2 3.7 12.8
v -2 3.7 -7.8
v -1.7 7.6 -7.8
v -1.7 7.6 -8
v -1.7 9.9 -7.8
v -1.7 9.9 -8
v -1.2 7.6 -8.1
v -1.2 7.6 -8.5
v -1.2 7.6 -8.9
v -1.2 7.6 -9.3
v -1.2 7.6 -9.7
v -1.2 7.6 -10.1
v -1.2 7.6 -10.5
v -1.2 7.6 -10.9
v -1.2 7.6 -11.3
v -1.2 7.6 -11.7
v -1.2 7.6 -12.1
v -1.2 7.6 -12.5
v -1.2 9.8 -8
v -1.2 9.8 -8.1
v -1.2 9.8 -12.5
v -1.2 9.8 -12.6
v -1.2 9.9 -8.5
v -1.2 9.9 -8.9
v -1.2 9.9 -11.7
v -1.2 9.9 -12.1
v -1.2 10 -8
v -1.2 10 -9.3
v -1.2 10 -9.7
v -1.2 10 -10.1
v -1.2 10 -10.5
v -1.2 10 -10.9
v -1.2 10 -11.3
v -1.2 10 -12.6
v -1 0 -7.8
v -1 0 -12.8
v -1 1.8 -9.5
v -1 1.8 -11.1
v -1 2 -9.3
v -1 2 -9.5
v -1 2 -11.1
v -1 2 -11.3
v -1 3.6 -9.3
v -1 3.6 -9.5
v -1 3.6 -11.1
v -1 3.6 -11.3
v -1 3.8 -9.5
v -1 3.8 -11.1
v -1 7.6 -8.1
v -1 7.6 -8.5
v -1 7.6 -8.9
v -1 7.6 -9.3
v -1 7.6 -9.7
v -1 7.6 -10.1
v -1 7.6 -10.5
v -1 7.6 -10.9
v -1 7.6 -11.3
v -1 7.6 -11.7
v -1 7.6 -12.1
v -1 7.6 -12.5
v -1 9.8 -7.8
v -1 9.8 -8.1
v -1 9.8 -12.5
v -1 9.8 -12.8
v -1 9.9 -8.5
v -1 9.9 -8.9
v -1 9.9 -11.7
v -1 9.9 -12.1
v -1 10 -9.3
v -1 10 -9.7
v -1 10 -10.1
v -1 10 -10.5
v -1 10 -10.9
v -1 10 -11.3
v 1.8 0 -9.3
v 1.8 0 -9.5
v 1.8 0 -11.1
v 1.8 0 -11.3
v 1.8 3.6 -9.3
v 1.8 3.6 -9.5
v 1.8 3.6 -11.1
v 1.8 3.6 -11.3
v 1.8 3.8 -9.5
v 1.8 3.8 -11.1
v 2 0 -9.5
v 2 0 -11.1
v 2 3.6 -9.5
v 2 3.6 -11.1
v 6 0 2.3
v 6 0 -0.7
v 6 2.7 2.3
v 6 2.7 2
v 6 2.7 -0.4
v 6 2.7 -0.7
v 6 3 2
v 6 3 -0.4
v -6 0 12.8
v -6 3.7 12.8
v -5.7 3.7 12.8
v -5.7 4 12.8
v -2.3 3.7 12.8
v -2.3 4 12.8
v -2 0 12.8
v -2 3.7 12.8
v -2 0 2.3
v -2 2.7 2.3
v 6 0 2.3
v 6 2.7 2.3
v -2 2.7 2
v -2 3 2
v 6 2.7 2
v 6 3 2
v -6 3.7 -7.8
v -6 9.8 -7.8
v -5.7 3.7 -7.8
v -5.7 4 -7.8
v -5.7 7.6 -7.8
v -5.7 9.8 -7.8
v -5.3 7.6 -7.8
v -5.3 9.9 -7.8
v -4.9 7.6 -7.8
v -4.9 9.9 -7.8
v -4.5 7.6 -7.8
v -4.5 10 -7.8
v -4.1 7.6 -7.8
v -4.1 10 -7.8
v -3.7 7.6 -7.8
v -3.7 10 -7.8
v -3.3 7.6 -7.8
v -3.3 10 -7.8
v -2.9 7.6 -7.8
v -2.9 10 -7.8
v -2.5 7.6 -7.8
v -2.5 10 -7.8
v -2.3 3.7 -7.8
v -2.3 4 -7.8
v -2.1 7.6 -7.8
v -2.1 9.9 -7.8
v -2 0 -7.8
v -2 3.7 -7.8
v -1.7 7.6 -7.8
v -1.7 9.9 -7.8
v -1.3 7.6 -7.8
v -1.3 9.8 -7.8
v -1 0 -7.8
v -1 9.8 -7.8
v -5.8 9.8 -8
v -5.8 10 -8
v -5.7 7.6 -8
v -5.7 9.8 -8
v -5.3 7.6 -8
v -5.3 9.9 -8
v -4.9 7.6 -8
v -4.9 9.9 -8
v -4.5 7.6 -8
v -4.5 10 -8
v -4.1 7.6 -8
v -4.1 10 -8
v -3.7 7.6 -8
v -3.7 10 -8
v -3.3 7.6 -8
v -3.3 10 -8
v -2.9 7.6 -8
v -2.9 10 -8
v -2.5 7.6 -8
v -2.5 10 -8
v -2.1 7.6 -8
v -2.1 9.9 -8
v -1.7 7.6 -8
v -1.7 9.9 -8
v -1.3 7.6 -8
v -1.3 9.8 -8
v -1.2 9.8 -8
v -1.2 10 -8
v -1.2 7.6 -8.5
v -1.2 9.9 -8.5
v -1 7.6 -8.5
v -1 9.9 -8.5
v -1.2 7.6 -9.3
v -1.2 10 -9.3
v -1 2 -9.3
v -1 3.6 -9.3
v -1 7.6 -9.3
v -1 10 -9.3
v 0.2 0 -9.3
v 0.2 2 -9.3
v 1.8 0 -9.3
v 1.8 3.6 -9.3
v -1 1.8 -9.5
v -1 2 -9.5
v -1 3.6 -9.5
v -1 3.8 -9.5
v 0 0 -9.5
v 0 1.8 -9.5
v 0.2 0 -9.5
v 0.2 2 -9.5
v 1.8 0 -9.5
v 1.8 3.6 -9.5
v 1.8 3.8 -9.5
v 2 0 -9.5
v 2 3.6 -9.5
v -1.2 7.6 -10.1
v -1.2 10 -10.1
v -1 7.6 -10.1
v -1 10 -10.1
v -1.2 7.6 -10.9
v -1.2 10 -10.9
v -1 7.6 -10.9
v -1 10 -10.9
v -1.2 7.6 -11.7
v -1.2 9.9 -11.7
v -1 7.6 -11.7
v -1 9.9 -11.7
v -1.2 7.6 -12.5
v -1.2 9.8 -12.5
v -1 7.6 -12.5
v -1 9.8 -12.5
v -2 2.7 -0.4
v -2 3 -0.4
v 6 2.7 -0.4
v 6 3 -0.4
v -2 0 -0.7
v -2 2.7 -0.7
v 6 0 -0.7
v 6 2.7 -0.7
v -1.2 7.6 -8.1
v -1.2 9.8 -8.1
v -1 7.6 -8.1
v -1 9.8 -8.1
v -1.2 7.6 -8.9
v -1.2 9.9 -8.9
v -1 7.6 -8.9
v -1 9.9 -8.9
v -1.2 7.6 -9.7
v -1.2 10 -9.7
v -1 7.6 -9.7
v -1 10 -9.7
v -1.2 7.6 -10.5
v -1.2 10 -10.5
v -1 7.6 -10.5
v -1 10 -10.5
v -1 1.8 -11.1
v -1 2 -11.1
v -1 3.6 -11.1
v -1 3.8 -11.1
v 0 0 -11.1
v 0 1.8 -11.1
v 0.2 0 -11.1
v 0.2 2 -11.1
v 1.8 0 -11.1
v 1.8 3.6 -11.1
v 1.8 3.8 -11.1
v 2 0 -11.1
v 2 3.6 -11.1
v -1.2 7.6 -11.3
v -1.2 10 -11.3
v -1 2 -11.3
v -1 3.6 -11.3
v -1 7.6 -11.3
v -1 10 -11.3
v 0.2 0 -11.3
v 0.2 2 -11.3
v 1.8 0 -11.3
v 1.8 3.6 -11.3
v -1.2 7.6 -12.1
v -1.2 9.9 -12.1
v -1 7.6 -12.1
v -1 9.9 -12.1
v -5.8 9.8 -12.6
v -5.8 10 -12.6
v -1.2 9.8 -12.6
v -1.2 10 -12.6
v -6 0 -12.8
v -6 9.8 -12.8
v -1 0 -12.8
v -1 9.8 -12.8
v -6 0 12.8
v -2 0 12.8
v -2 0 2.3
v 6 0 2.3
v -2 0 -0.7
v 6 0 -0.7
v -6 0 -7.8
v -2 0 -7.8
v -1 0 -7.8
v 0.2 0 -9.3
v 1.8 0 -9.3
v 0 0 -9.5
v 0.2 0 -9.5
v 1.8 0 -9.5
v 2 0 -9.5
v 0 0 -11.1
v 0.2 0 -11.1
v 1.8 0 -11.1
v 2 0 -11.1
v 0.2 0 -11.3
v 1.8 0 -11.3
v -6 0 -12.8
v -1 0 -12.8
v -1 1.8 -9.5
v 0 1.8 -9.5
v -1 1.8 -11.1
v 0 1.8 -11.1
v -1 2 -9.3
v 0.2 2 -9.3
v -1 2 -9.5
v 0.2 2 -9.5
v -1 2 -11.1
v 0.2 2 -11.1
v -1 2 -11.3
v 0.2 2 -11.3
v -2 2.7 2.3
v 6 2.7 2.3
v -2 2.7 2
v 6 2.7 2
v -2 2.7 -0.4
v 6 2.7 -0.4
v -2 2.7 -0.7
v 6 2.7 -0.7
v -2 3 2
v 6 3 2
v -2 3 -0.4
v 6 3 -0.4
v -1 3.6 -9.3
v 1.8 3.6 -9.3
v -1 3.6 -9.5
v 1.8 3.6 -9.5
v 2 3.6 -9.5
v -1 3.6 -11.1
v 1.8 3.6 -11.1
v 2 3.6 -11.1
v -1 3.6 -11.3
v 1.8 3.6 -11.3
v -6 3.7 12.8
v -5.7 3.7 12.8
v -2.3 3.7 12.8
v -2 3.7 12.8
v -6 3.7 -7.8
v -5.7 3.7 -7.8
v -2.3 3.7 -7.8
v -2 3.7 -7.8
v -1 3.8 -9.5
v 1.8 3.8 -9.5
v -1 3.8 -11.1
v 1.8 3.8 -11.1
v -5.7 4 12.8
v -2.3 4 12.8
v -5.7 4 -7.8
v -2.3 4 -7.8
v -5.7 7.6 -7.8
v -5.3 7.6 -7.8
v -4.9 7.6 -7.8
v -4.5 7.6 -7.8
v -4.1 7.6 -7.8
v -3.7 7.6 -7.8
v -3.3 7.6 -7.8
v -2.9 7.6 -7.8
v -2.5 7.6 -7.8
v -2.1 7.6 -7.8
v -1.7 7.6 -7.8
v -1.3 7.6 -7.8
v -5.7 7.6 -8
v -5.3 7.6 -8
v -4.9 7.6 -8
v -4.5 7.6 -8
v -4.1 7.6 -8
v -3.7 7.6 -8
v -3.3 7.6 -8
v -2.9 7.6 -8
v -2.5 7.6 -8
v -2.1 7.6 -8
v -1.7 7.6 -8
v -1.3 7.6 -8
v -1.2 7.6 -8.1
v -1 7.6 -8.1
v -1.2 7.6 -8.5
v -1 7.6 -8.5
v -1.2 7.6 -8.9
v -1 7.6 -8.9
v -1.2 7.6 -9.3
v -1 7.6 -9.3
v -1.2 7.6 -9.7
v -1 7.6 -9.7
v -1.2 7.6 -10.1
v -1 7.6 -10.1
v -1.2 7.6 -10.5
v -1 7.6 -10.5
v -1.2 7.6 -10.9
v -1 7.6 -10.9
v -1.2 7.6 -11.3
v -1 7.6 -11.3
v -1.2 7.6 -11.7
v -1 7.6 -11.7
v -1.2 7.6 -12.1
v -1 7.6 -12.1
v -1.2 7.6 -12.5
v -1 7.6 -12.5
v -6 9.8 -7.8
v -5.7 9.8 -7.8
v -1.3 9.8 -7.8
v -1 9.8 -7.8
v -5.8 9.8 -8
v -5.7 9.8 -8
v -1.3 9.8 -8
v -1.2 9.8 -8
v -1.2 9.8 -8.1
v -1 9.8 -8.1
v -1.2 9.8 -12.5
v -1 9.8 -12.5
v -5.8 9.8 -12.6
v -1.2 9.8 -12.6
v -6 9.8 -12.8
v -1 9.8 -12.8
v -5.3 9.9 -7.8
v -4.9 9.9 -7.8
v -2.1 9.9 -7.8
v -1.7 9.9 -7.8
v -5.3 9.9 -8
v -4.9 9.9 -8
v -2.1 9.9 -8
v -1.7 9.9 -8
v -1.2 9.9 -8.5
v -1 9.9 -8.5
v -1.2 9.9 -8.9
v -1 9.9 -8.9
v -1.2 9.9 -11.7
v -1 9.9 -11.7
v -1.2 9.9 -12.1
v -1 9.9 -12.1
v -4.5 10 -7.8
v -4.1 10 -7.8
v -3.7 10 -7.8
v -3.3 10 -7.8
v -2.9 10 -7.8
v -2.5 10 -7.8
v -5.8 10 -8
v -4.5 10 -8
v -4.1 10 -8
v -3.7 10 -8
v -3.3 10 -8
v -2.9 10 -8
v -2.5 10 -8
v -1.2 10 -8
v -1.2 10 -9.3
v -1 10 -9.3
v -1.2 10 -9.7
v -1 10 -9.7
v -1.2 10 -10.1
v -1 10 -10.1
v -1.2 10 -10.5
v -1 10 -10.5
v -1.2 10 -10.9
v -1 10 -10.9
v -1.2 10 -11.3
v -1 10 -11.3
v -5.8 10 -12.6
v -1.2 10 -12.6

# faces
f 4/2/1 2/2/1 1/2/1
f 5/1/1 3/1/1 2/1/1
f 5/2/1 2/2/1 4/2/1
f 6/1/1 3/1/1 5/1/1
f 7/1/1 3/1/1 6/1/1
f 10/1/1 9/1/1 8/1/1
f 11/1/1 9/1/1 10/1/1
f 14/2/1 13/2/1 12/2/1
f 15/2/1 13/2/1 14/2/1
f 18/1/1 17/1/1 16/1/1
f 19/1/1 17/1/1 18/1/1
f 22/1/1 21/1/1 20/1/1
f 23/1/1 21/1/1 22/1/1
f 26/1/1 25/1/1 24/1/1
f 27/1/1 25/1/1 26/1/1
f 30/1/1 29/1/1 28/1/1
f 31/1/1 29/1/1 30/1/1
f 34/1/1 33/1/1 32/1/1
f 35/1/1 33/1/1 34/1/1
f 38/1/1 37/1/1 36/1/1
f 39/1/1 37/1/1 38/1/1
f 42/2/1 41/2/1 40/2/1
f 43/2/1 41/2/1 42/2/1
f 48/2/1 45/2/1 44/2/1
f 49/2/1 45/2/1 48/2/1
f 50/2/1 47/2/1 46/2/1
f 51/2/1 47/2/1 50/2/1
f 52/1/2 53/1/2 54/1/2
f 54/1/2 53/1/2 55/1/2
f 56/1/2 57/1/2 58/1/2
f 58/1/2 57/1/2 59/1/2
f 60/1/2 61/1/2 62/1/2
f 62/1/2 61/1/2 63/1/2
f 64/1/2 65/1/2 66/1/2
f 66/1/2 65/1/2 67/1/2
f 68/1/2 69/1/2 70/1/2
f 70/1/2 69/1/2 71/1/2
f 72/2/2 73/2/2 74/2/2
f 74/2/2 73/2/2 75/2/2
f 76/2/2 77/2/2 80/2/2
f 78/2/2 79/2/2 83/2/2
f 80/2/2 81/2/2 84/2/2
f 82/2/2 83/2/2 85/2/2
f 80/2/2 84/2/2 86/2/2
f 84/2/2 85/2/2 86/2/2
f 76/2/2 80/2/2 86/2/2
f 85/2/2 83/2/2 87/2/2
f 86/2/2 85/2/2 87/2/2
f 83/2/2 79/2/2 87/2/2
f 88/1/2 89/1/2 90/1/2
f 90/1/2 89/1/2 91/1/2
f 92/1/2 93/1/2 105/1/2
f 102/1/2 103/1/2 106/1/2
f 104/1/2 105/1/2 108/1/2
f 105/1/2 93/1/2 108/1/2
f 94/1/2 95/1/2 109/1/2
f 100/1/2 101/1/2 110/1/2
f 106/1/2 107/1/2 111/1/2
f 102/1/2 106/1/2 111/1/2
f 104/1/2 108/1/2 112/1/2
f 108/1/2 109/1/2 112/1/2
f 109/1/2 95/1/2 113/1/2
f 112/1/2 109/1/2 113/1/2
f 96/1/2 97/1/2 114/1/2
f 114/1/2 97/1/2 115/1/2
f 98/1/2 99/1/2 116/1/2
f 116/1/2 99/1/2 117/1/2
f 100/1/2 110/1/2 118/1/2
f 110/1/2 111/1/2 118/1/2
f 111/1/2 107/1/2 119/1/2
f 118/1/2 111/1/2 119/1/2
f 120/1/2 121/1/2 122/1/2
f 122/1/2 121/1/2 123/1/2
f 120/1/2 122/1/2 124/1/2
f 124/1/2 122/1/2 125/1/2
f 123/1/2 121/1/2 126/1/2
f 126/1/2 121/1/2 127/1/2
f 120/1/2 124/1/2 128/1/2
f 127/1/2 121/1/2 131/1/2
f 128/1/2 129/1/2 132/1/2
f 130/1/2 131/1/2 133/1/2
f 128/1/2 132/1/2 134/1/2
f 132/1/2 133/1/2 134/1/2
f 120/1/2 128/1/2 134/1/2
f 134/1/2 133/1/2 135/1/2
f 135/1/2 133/1/2 136/1/2
f 136/1/2 133/1/2 137/1/2
f 137/1/2 133/1/2 138/1/2
f 138/1/2 133/1/2 139/1/2
f 139/1/2 133/1/2 140/1/2
f 140/1/2 133/1/2 141/1/2
f 133/1/2 131/1/2 142/1/2
f 141/1/2 133/1/2 142/1/2
f 131/1/2 121/1/2 142/1/2
f 142/1/2 121/1/2 143/1/2
f 143/1/2 121/1/2 144/1/2
f 144/1/2 121/1/2 145/1/2
f 120/1/2 134/1/2 146/1/2
f 146/1/2 134/1/2 147/1/2
f 145/1/2 121/1/2 148/1/2
f 148/1/2 121/1/2 149/1/2
f 135/1/2 136/1/2 150/1/2
f 150/1/2 136/1/2 151/1/2
f 143/1/2 144/1/2 152/1/2
f 152/1/2 144/1/2 153/1/2
f 137/1/2 138/1/2 154/1/2
f 154/1/2 138/1/2 155/1/2
f 139/1/2 140/1/2 156/1/2
f 156/1/2 140/1/2 157/1/2
f 141/1/2 142/1/2 158/1/2
f 158/1/2 142/1/2 159/1/2
f 160/2/2 161/2/2 164/2/2
f 164/2/2 161/2/2 165/2/2
f 162/2/2 163/2/2 166/2/2
f 166/2/2 163/2/2 167/2/2
f 165/2/2 166/2/2 168/2/2
f 168/2/2 166/2/2 169/2/2
f 170/2/2 171/2/2 172/2/2
f 172/2/2 171/2/2 173/2/2
f 174/2/2 175/2/2 176/2/2
f 176/2/2 175/2/2 177/2/2
f 177/2/2 175/2/2 178/2/2
f 178/2/2 175/2/2 179/2/2
f 177/2/2 178/2/2 180/2/2
f 180/2/2 178/2/2 181/2/2
f 184/2/3 183/2/3 182/2/3
f 186/2/3 184/2/3 182/2/3
f 186/2/3 185/2/3 184/2/3
f 187/2/3 185/2/3 186/2/3
f 188/2/3 186/2/3 182/2/3
f 189/2/3 186/2/3 188/2/3
f 192/2/3 191/2/3 190/2/3
f 193/2/3 191/2/3 192/2/3
f 196/2/3 195/2/3 194/2/3
f 197/2/3 195/2/3 196/2/3
f 200/1/3 199/1/3 198/1/3
f 201/1/3 199/1/3 200/1/3
f 202/1/3 199/1/3 201/1/3
f 203/1/3 199/1/3 202/1/3
f 204/1/3 202/1/3 201/1/3
f 206/1/3 204/1/3 201/1/3
f 206/1/3 205/1/3 204/1/3
f 207/1/3 205/1/3 206/1/3
f 208/1/3 206/1/3 201/1/3
f 210/1/3 208/1/3 201/1/3
f 210/1/3 209/1/3 208/1/3
f 211/1/3 209/1/3 210/1/3
f 212/1/3 210/1/3 201/1/3
f 214/1/3 212/1/3 201/1/3
f 214/1/3 213/1/3 212/1/3
f 215/1/3 213/1/3 214/1/3
f 216/1/3 214/1/3 201/1/3
f 218/1/3 216/1/3 201/1/3
f 218/1/3 217/1/3 216/1/3
f 219/1/3 217/1/3 218/1/3
f 221/1/3 218/1/3 201/1/3
f 222/1/3 218/1/3 221/1/3
f 222/1/3 221/1/3 220/1/3
f 225/1/3 222/1/3 220/1/3
f 225/1/3 223/1/3 222/1/3
f 226/1/3 223/1/3 225/1/3
f 226/1/3 225/1/3 224/1/3
f 227/1/3 223/1/3 226/1/3
f 228/1/3 226/1/3 224/1/3
f 230/1/3 228/1/3 224/1/3
f 230/1/3 229/1/3 228/1/3
f 231/1/3 229/1/3 230/1/3
f 235/1/3 233/1/3 232/1/3
f 236/1/3 235/1/3 234/1/3
f 237/1/3 233/1/3 235/1/3
f 237/1/3 235/1/3 236/1/3
f 239/1/3 233/1/3 237/1/3
f 240/1/3 239/1/3 238/1/3
f 241/1/3 233/1/3 239/1/3
f 241/1/3 239/1/3 240/1/3
f 244/1/3 243/1/3 242/1/3
f 245/1/3 243/1/3 244/1/3
f 248/1/3 247/1/3 246/1/3
f 249/1/3 247/1/3 248/1/3
f 252/1/3 251/1/3 250/1/3
f 253/1/3 251/1/3 252/1/3
f 255/1/3 251/1/3 253/1/3
f 256/1/3 255/1/3 254/1/3
f 257/1/3 255/1/3 256/1/3
f 258/1/3 255/1/3 257/1/3
f 259/1/3 251/1/3 255/1/3
f 259/1/3 255/1/3 258/1/3
f 262/1/3 261/1/3 260/1/3
f 263/1/3 261/1/3 262/1/3
f 268/1/3 265/1/3 264/1/3
f 269/1/3 265/1/3 268/1/3
f 271/2/3 267/2/3 266/2/3
f 272/2/3 271/2/3 270/2/3
f 273/2/3 267/2/3 271/2/3
f 273/2/3 271/2/3 272/2/3
f 279/2/3 275/2/3 274/2/3
f 280/2/3 279/2/3 278/2/3
f 281/2/3 275/2/3 279/2/3
f 281/2/3 279/2/3 280/2/3
f 283/2/3 277/2/3 276/2/3
f 284/2/3 277/2/3 283/2/3
f 285/2/3 283/2/3 282/2/3
f 286/2/3 283/2/3 285/2/3
f 289/1/3 288/1/3 287/1/3
f 290/1/3 288/1/3 289/1/3
f 293/1/3 292/1/3 291/1/3
f 294/1/3 292/1/3 293/1/3
f 297/1/3 296/1/3 295/1/3
f 298/1/3 296/1/3 297/1/3
f 301/1/3 300/1/3 299/1/3
f 302/1/3 300/1/3 301/1/3
f 303/2/4 304/2/4 305/2/4
f 305/2/4 304/2/4 306/2/4
f 307/2/4 308/2/4 309/2/4
f 309/2/4 308/2/4 310/2/4
f 311/1/4 312/1/4 313/1/4
f 313/1/4 312/1/4 314/1/4
f 315/1/4 316/1/4 317/1/4
f 317/1/4 316/1/4 318/1/4
f 319/1/4 320/1/4 321/1/4
f 321/1/4 320/1/4 322/1/4
f 323/1/4 324/1/4 325/1/4
f 325/1/4 324/1/4 326/1/4
f 327/2/4 328/2/4 332/2/4
f 331/2/4 332/2/4 333/2/4
f 332/2/4 328/2/4 334/2/4
f 333/2/4 332/2/4 334/2/4
f 329/2/4 330/2/4 336/2/4
f 336/2/4 330/2/4 337/2/4
f 335/2/4 336/2/4 338/2/4
f 338/2/4 336/2/4 339/2/4
f 340/1/4 341/1/4 344/1/4
f 344/1/4 341/1/4 345/1/4
f 342/2/4 343/2/4 347/2/4
f 346/2/4 347/2/4 348/2/4
f 347/2/4 343/2/4 349/2/4
f 348/2/4 347/2/4 349/2/4
f 350/1/4 351/1/4 352/1/4
f 352/1/4 351/1/4 353/1/4
f 354/1/4 355/1/4 356/1/4
f 356/1/4 355/1/4 357/1/4
f 358/1/4 359/1/4 360/1/4
f 360/1/4 359/1/4 361/1/4
f 364/2/5 363/2/5 362/2/5
f 366/2/5 364/2/5 362/2/5
f 366/2/5 365/2/5 364/2/5
f 367/2/5 365/2/5 366/2/5
f 368/2/5 366/2/5 362/2/5
f 369/2/5 366/2/5 368/2/5
f 374/2/5 372/2/5 371/2/5
f 375/2/5 372/2/5 374/2/5
f 377/2/5 374/2/5 373/2/5
f 377/2/5 376/2/5 375/2/5
f 377/2/5 375/2/5 374/2/5
f 378/2/5 376/2/5 377/2/5
f 379/2/5 376/2/5 378/2/5
f 380/2/5 376/2/5 379/2/5
f 381/2/5 379/2/5 378/2/5
f 382/2/5 379/2/5 381/2/5
f 383/1/5 369/1/5 368/1/5
f 383/1/5 370/1/5 369/1/5
f 384/1/5 370/1/5 383/1/5
f 387/2/5 386/2/5 385/2/5
f 388/2/5 386/2/5 387/2/5
f 391/2/5 390/2/5 389/2/5
f 392/2/5 390/2/5 391/2/5
f 395/2/5 394/2/5 393/2/5
f 396/2/5 394/2/5 395/2/5
f 397/2/6 398/2/6 399/2/6
f 399/2/6 398/2/6 400/2/6
f 401/2/6 402/2/6 403/2/6
f 403/2/6 402/2/6 404/2/6
f 405/2/6 406/2/6 407/2/6
f 407/2/6 406/2/6 408/2/6
f 409/2/6 410/2/6 411/2/6
f 411/2/6 410/2/6 412/2/6
f 412/2/6 413/2/6 415/2/6
f 415/2/6 413/2/6 416/2/6
f 414/2/6 415/2/6 417/2/6
f 417/2/6 415/2/6 418/2/6
f 419/2/6 420/2/6 423/2/6
f 423/2/6 420/2/6 424/2/6
f 421/2/6 422/2/6 425/2/6
f 425/2/6 422/2/6 426/2/6
f 427/2/6 428/2/6 429/2/6
f 429/2/6 428/2/6 430/2/6
f 431/2/6 432/2/6 433/2/6
f 433/2/6 432/2/6 434/2/6
f 435/1/6 436/1/6 447/1/6
f 447/1/6 436/1/6 448/1/6
f 437/1/6 438/1/6 449/1/6
f 449/1/6 438/1/6 450/1/6
f 439/1/6 440/1/6 451/1/6
f 451/1/6 440/1/6 452/1/6
f 441/1/6 442/1/6 453/1/6
f 453/1/6 442/1/6 454/1/6
f 443/1/6 444/1/6 455/1/6
f 455/1/6 444/1/6 456/1/6
f 445/1/6 446/1/6 457/1/6
f 457/1/6 446/1/6 458/1/6
f 459/1/6 460/1/6 461/1/6
f 461/1/6 460/1/6 462/1/6
f 463/1/6 464/1/6 465/1/6
f 465/1/6 464/1/6 466/1/6
f 467/1/6 468/1/6 469/1/6
f 469/1/6 468/1/6 470/1/6
f 471/1/6 472/1/6 473/1/6
f 473/1/6 472/1/6 474/1/6
f 475/1/6 476/1/6 477/1/6
f 477/1/6 476/1/6 478/1/6
f 479/1/6 480/1/6 481/1/6
f 481/1/6 480/1/6 482/1/6
f 483/1/6 484/1/6 487/1/6
f 487/1/6 484/1/6 488/1/6
f 485/1/6 486/1/6 489/1/6
f 489/1/6 486/1/6 490/1/6
f 490/1/6 486/1/6 491/1/6
f 491/1/6 486/1/6 492/1/6
f 483/1/6 487/1/6 495/1/6
f 493/1/6 494/1/6 496/1/6
f 483/1/6 495/1/6 497/1/6
f 495/1/6 496/1/6 497/1/6
f 496/1/6 494/1/6 498/1/6
f 497/1/6 496/1/6 498/1/6
f 499/1/6 500/1/6 503/1/6
f 503/1/6 500/1/6 504/1/6
f 501/1/6 502/1/6 505/1/6
f 505/1/6 502/1/6 506/1/6
f 507/1/6 508/1/6 509/1/6
f 509/1/6 508/1/6 510/1/6
f 511/1/6 512/1/6 513/1/6
f 513/1/6 512/1/6 514/1/6
f 515/1/6 516/1/6 522/1/6
f 522/1/6 516/1/6 523/1/6
f 517/1/6 518/1/6 524/1/6
f 524/1/6 518/1/6 525/1/6
f 519/1/6 520/1/6 526/1/6
f 526/1/6 520/1/6 527/1/6
f 524/1/6 525/1/6 529/1/6
f 527/1/6 528/1/6 529/1/6
f 526/1/6 527/1/6 529/1/6
f 525/1/6 526/1/6 529/1/6
f 522/1/6 523/1/6 529/1/6
f 523/1/6 524/1/6 529/1/6
f 521/1/6 522/1/6 529/1/6
f 521/1/6 529/1/6 531/1/6
f 529/1/6 530/1/6 531/1/6
f 531/1/6 530/1/6 532/1/6
f 521/1/6 531/1/6 533/1/6
f 521/1/6 533/1/6 535/1/6
f 533/1/6 534/1/6 535/1/6
f 535/1/6 534/1/6 536/1/6
f 521/1/6 535/1/6 537/1/6
f 521/1/6 537/1/6 539/1/6
f 537/1/6 538/1/6 539/1/6
f 539/1/6 538/1/6 540/1/6
f 521/1/6 539/1/6 541/1/6
f 541/1/6 539/1/6 542/1/6
